# xmcd
#
# Track frame offsets: 
#        150
#        20990
#        74660
#        94787
#        101950
#        105525
#        125337
#        165882
#
# Disc length: 2414 seconds
#
# Revision: 9
# Processed by: cddbd v1.5.2PL0 Copyright (c) Steve Scherf et al.
# Submitted via: ExactAudioCopy v0.99pb4
#
DISCID=6a096c08
DTITLE=Johnny Winter - Johnny Winter And Live
DYEAR=1971
DGENRE=Blues Rock
TTITLE0=Good Morning Little School Girl
TTITLE1=It's My Own Fault
TTITLE2=Jumpin' Jack Flash - Rock And Roll Medley
TTITLE3=Great Balls Of Fire
TTITLE4=Long Tall Sally
TTITLE5=Whole Lotta Shakin' Goin' On
TTITLE6=Mean Town Blues
TTITLE7=Johnny B.Goode
EXTD=YEAR: 1971
EXTT0=
EXTT1=
EXTT2=
EXTT3=
EXTT4=
EXTT5=
EXTT6=
EXTT7=
PLAYORDER=
